<svg xmlns="http://www.w3.org/2000/svg" version="1.1" xmlns:xlink="http://www.w3.org/1999/xlink" xmlns:svgjs="http://svgjs.dev/svgjs" width="1000" height="154" viewBox="0 0 1000 154"><g transform="matrix(1,0,0,1,-0.6060317213519966,-0.5180601090057451)"><svg viewBox="0 0 396 61" data-background-color="#121313" preserveAspectRatio="xMidYMid meet" height="154" width="1000" xmlns="http://www.w3.org/2000/svg" xmlns:xlink="http://www.w3.org/1999/xlink"><defs></defs><g id="tight-bounds" transform="matrix(1,0,0,1,0.23998859144273865,0.2052056275931875)"><svg viewBox="0 0 395.52 60.589588744813646" height="60.589588744813646" width="395.52"><g><svg viewBox="0 0 395.52 60.589588744813646" height="60.589588744813646" width="395.52"><g><svg viewBox="0 0 395.52 60.589588744813646" height="60.589588744813646" width="395.52"><g><svg viewBox="0 0 395.52000000000004 60.58958874481365" height="60.589588744813646" width="395.52"><g transform="matrix(1,0,0,1,0,37.4467965780417)"><svg viewBox="0 0 395.52000000000004 23.142792166771958" height="23.142792166771958" width="395.52000000000004"><g><svg viewBox="0 0 395.52000000000004 23.142792166771958" height="23.142792166771958" width="395.52000000000004"><g><svg viewBox="0 0 395.52000000000004 23.142792166771958" height="23.142792166771958" width="395.52000000000004"><g transform="matrix(1,0,0,1,0,0)"><svg width="395.52000000000004" viewBox="0.9500000476837158 -36.349998474121094 633.1499633789062 37.04999923706055" height="23.142792166771958" data-palette-color="#ffffff"><path d="M26.95-21L25.6-13.2 12.3-13.2 10 0 0.95 0 7.3-36 32.4-36 31-28.2 14.9-28.2 13.65-21 26.95-21ZM37.4-36L46.4-36 40.1 0 31.05 0 37.4-36ZM72.25-36L81.25-36 74.95 0 65.9 0 59.6-19.7 56.2 0 47.15 0 53.5-36 62.8-36 69-17.6 72.25-36ZM109.29 0L99.79 0 100.09-7.85 91.74-7.85 89.29 0 79.74 0 92.59-36 109.09-36 109.29 0ZM100.89-27.25L97.74-27.25 93.79-14.55 100.34-14.55 100.89-27.25ZM138.24-7.8L136.84 0 114.04 0 120.39-36 129.39-36 124.44-7.8 138.24-7.8ZM178.84-21L177.49-13.2 164.19-13.2 161.89 0 152.84 0 159.19-36 184.29-36 182.89-28.2 166.79-28.2 165.54-21 178.84-21ZM209.13 0L199.63 0 199.93-7.85 191.58-7.85 189.13 0 179.58 0 192.43-36 208.93-36 209.13 0ZM200.73-27.25L197.58-27.25 193.63-14.55 200.18-14.55 200.73-27.25ZM238.98-36L247.98-36 241.68 0 232.63 0 226.33-19.7 222.93 0 213.88 0 220.23-36 229.53-36 235.73-17.6 238.98-36ZM285.78-36L284.38-28.2 272.08-28.2 267.13 0 258.08 0 263.03-28.2 250.68-28.2 252.08-36 285.78-36ZM307.93 0L298.43 0 298.73-7.85 290.38-7.85 287.93 0 278.38 0 291.23-36 307.73-36 307.93 0ZM299.53-27.25L296.38-27.25 292.43-14.55 298.98-14.55 299.53-27.25ZM321.87-10.25L321.87-10.25Q321.87-6.8 326.85-6.8 331.82-6.8 331.82-9.9L331.82-9.9Q331.82-11.55 330.12-12.6 328.42-13.65 326-14.35 323.57-15.05 321.15-15.98 318.72-16.9 317.02-18.88 315.32-20.85 315.32-23.8L315.32-23.8Q315.32-36.35 331.47-36.35L331.47-36.35Q337.37-36.35 340.4-34.13 343.42-31.9 343.42-27.95L343.42-27.95Q343.42-26.5 343.05-25.18 342.67-23.85 342.27-23.3L342.27-23.3 341.87-22.7 333.02-22.7Q334.12-23.85 334.12-25.6L334.12-25.6Q334.12-28.85 329.87-28.85L329.87-28.85Q324.52-28.85 324.52-25.45L324.52-25.45Q324.52-23.75 326.22-22.75 327.92-21.75 330.35-21.18 332.77-20.6 335.22-19.75 337.67-18.9 339.37-16.93 341.07-14.95 341.07-11.8L341.07-11.8Q341.07-5.45 337.27-2.38 333.47 0.7 325.57 0.7 317.67 0.7 314.77-2.1L314.77-2.1Q312.62-4.2 312.62-7.9L312.62-7.9Q312.62-9.3 312.92-10.95L312.92-10.95 313.07-11.75 322.07-11.75 321.97-11.15Q321.87-10.65 321.87-10.25ZM359.57-23.35L360.72-23.35 369.17-36 378.17-36 362.77-13.85 360.32 0 351.27 0 353.72-13.85 346.12-36 355.67-36 359.57-23.35ZM413.52-21L412.17-13.2 398.87-13.2 396.57 0 387.52 0 393.87-36 418.97-36 417.57-28.2 401.47-28.2 400.22-21 413.52-21ZM437.06-36.35L437.06-36.35Q449.11-36.35 449.11-26.5L449.11-26.5Q449.11-24.85 448.76-22.95L448.76-22.95 447.01-12.95Q445.81-6 441.81-2.65 437.81 0.7 430.56 0.7 423.31 0.7 420.46-2.65L420.46-2.65Q418.51-4.95 418.51-9L418.51-9Q418.51-10.8 418.91-12.95L418.91-12.95 420.66-22.95Q423.01-36.35 437.06-36.35ZM431.91-7.05L431.91-7.05Q434.41-7.05 435.91-8.35 437.41-9.65 438.01-13.15L438.01-13.15 439.71-22.75Q439.86-23.75 439.86-24.55L439.86-24.55Q439.86-28.6 435.76-28.6L435.76-28.6Q430.61-28.5 429.61-22.75L429.61-22.75 427.91-13.15Q427.71-11.9 427.71-10.55L427.71-10.55Q427.71-7.05 431.91-7.05ZM470.26-36.35L470.26-36.35Q482.31-36.35 482.31-26.5L482.31-26.5Q482.31-24.85 481.96-22.95L481.96-22.95 480.21-12.95Q479.01-6 475.01-2.65 471.01 0.7 463.76 0.7 456.51 0.7 453.66-2.65L453.66-2.65Q451.71-4.95 451.71-9L451.71-9Q451.71-10.8 452.11-12.95L452.11-12.95 453.86-22.95Q456.21-36.35 470.26-36.35ZM465.11-7.05L465.11-7.05Q467.61-7.05 469.11-8.35 470.61-9.65 471.21-13.15L471.21-13.15 472.91-22.75Q473.06-23.75 473.06-24.55L473.06-24.55Q473.06-28.6 468.96-28.6L468.96-28.6Q463.81-28.5 462.81-22.75L462.81-22.75 461.11-13.15Q460.91-11.9 460.91-10.55L460.91-10.55Q460.91-7.05 465.11-7.05ZM520.81-36L519.41-28.2 507.11-28.2 502.16 0 493.11 0 498.06-28.2 485.71-28.2 487.11-36 520.81-36ZM524.9-36L539.4-36Q545.11-36 547.5-33.5L547.5-33.5Q549.31-31.6 549.31-28.7L549.31-28.7Q549.31-27.7 549.11-26.6L549.11-26.6 548.65-24.2Q548.11-21.35 546.53-19.75 544.96-18.15 543.75-18.15L543.75-18.15 543.71-17.75Q545.11-17.75 546.56-16.2 548-14.65 548-12.55L548-12.55Q548-11.7 547.81-10.75L547.81-10.75 547.5-9.2Q546.71-4.9 543.68-2.45 540.65 0 535.25 0L535.25 0 518.56 0 524.9-36ZM534.9-14.7L534.9-14.7 530.15-14.7 528.96-7.8 533.71-7.8Q533.81-7.8 533.9-7.8L533.9-7.8Q536.21-7.8 537.56-8.88 538.9-9.95 538.9-11.5L538.9-11.5Q538.9-14.7 534.9-14.7ZM536.25-28.2L536.25-28.2 532.5-28.2 531.21-20.75 534.9-20.75Q539.71-20.75 539.71-24.95L539.71-24.95Q539.71-26.4 538.83-27.3 537.96-28.2 536.25-28.2ZM578.35 0L568.85 0 569.15-7.85 560.8-7.85 558.35 0 548.8 0 561.65-36 578.15-36 578.35 0ZM569.95-27.25L566.8-27.25 562.85-14.55 569.4-14.55 569.95-27.25ZM607.3-7.8L605.9 0 583.1 0 589.45-36 598.45-36 593.5-7.8 607.3-7.8ZM634.1-7.8L632.7 0 609.9 0 616.25-36 625.25-36 620.3-7.8 634.1-7.8Z" opacity="1" transform="matrix(1,0,0,1,0,0)" fill="#ffffff" class="undefined-text-0" data-fill-palette-color="primary" id="text-0"></path></svg></g></svg></g></svg></g></svg></g><g transform="matrix(1,0,0,1,170.25360271607067,0)"><svg viewBox="0 0 55.01279456785869 31.983338774478845" height="31.983338774478845" width="55.01279456785869"><g><svg version="1.0" xmlns="http://www.w3.org/2000/svg" xmlns:xlink="http://www.w3.org/1999/xlink" x="0" y="0" viewBox="0 0 100 58.13800048828125" enable-background="new 0 0 100 58.138" xml:space="preserve" width="55.01279456785869" height="31.983338774478845" class="icon-icon-0" data-fill-palette-color="accent" id="icon-0"><path d="M12.343 13.094C4.861 18.53 0 24.599 0 29.069s4.861 10.538 12.343 15.974V13.094z" fill="#959ea8" data-fill-palette-color="accent"></path><path d="M87.656 13.094v31.949C95.139 39.606 100 33.539 100 29.069S95.139 18.53 87.656 13.094z" fill="#959ea8" data-fill-palette-color="accent"></path><path d="M50 0C39.436 0 28.577 3.571 19.689 8.452v41.234c8.888 4.881 19.747 8.452 30.311 8.452 10.564 0 21.423-3.571 30.312-8.452V8.452C71.423 3.571 60.564 0 50 0zM66.632 34.333h-3.093v-3.718h-4.833v3.718h-3.093v-3.718H50.78v3.718h-3.093v-3.718h-4.833v3.718H39.76v-3.718h-4.833v3.718h-3.093V23.805h3.093v3.717h4.833v-3.717h3.093v3.717h4.833v-3.717h3.093v3.717h4.833v-3.717h3.093v3.717h4.833v-3.717h3.093V34.333z" fill="#959ea8" data-fill-palette-color="accent"></path></svg></g></svg></g><g></g></svg></g></svg></g></svg></g></svg><rect width="395.52" height="60.589588744813646" fill="none" stroke="none" visibility="hidden"></rect></g></svg></g></svg>