<svg width="1000" height="154" viewBox="0 0 1000 154" fill="none" xmlns="http://www.w3.org/2000/svg">
<g clip-path="url(#clip0_11_35)">
<g clip-path="url(#clip1_11_35)">
<g clip-path="url(#clip2_11_35)">
<g clip-path="url(#clip3_11_35)">
<g clip-path="url(#clip4_11_35)">
<g clip-path="url(#clip5_11_35)">
<g clip-path="url(#clip6_11_35)">
<g clip-path="url(#clip7_11_35)">
<g clip-path="url(#clip8_11_35)">
<path d="M41.1712 118.744L39.0423 131.044H18.0688L14.4419 151.86H0.170441L10.1841 95.0897H49.7656L47.5578 107.39H22.1689L20.1977 118.744H41.1712ZM57.6503 95.0897H71.8429L61.9081 151.86H47.6367L57.6503 95.0897ZM112.607 95.0897H126.8L116.865 151.86H102.593L92.6587 120.794L87.297 151.86H73.0256L83.0393 95.0897H97.7049L107.482 124.106L112.607 95.0897ZM171.017 151.86H156.036L156.509 139.481H143.342L139.478 151.86H124.418L144.682 95.0897H170.702L171.017 151.86ZM157.771 108.888H152.804L146.575 128.915H156.904L157.771 108.888ZM216.67 139.56L214.462 151.86H178.508L188.522 95.0897H202.714L194.908 139.56H216.67ZM280.694 118.744L278.566 131.044H257.592L253.965 151.86H239.694L249.707 95.0897H289.289L287.081 107.39H261.692L259.721 118.744H280.694ZM328.46 151.86H313.479L313.952 139.481H300.785L296.921 151.86H281.861L302.125 95.0897H328.145L328.46 151.86ZM315.214 108.888H310.246L304.018 128.915H314.347L315.214 108.888ZM375.532 95.0897H389.725L379.79 151.86H365.519L355.584 120.794L350.222 151.86H335.951L345.964 95.0897H360.63L370.407 124.106L375.532 95.0897ZM449.334 95.0897L447.126 107.39H427.729L419.923 151.86H405.652L413.458 107.39H393.983L396.19 95.0897H449.334ZM484.263 151.86H469.282L469.755 139.481H456.588L452.724 151.86H437.664L457.928 95.0897H483.948L484.263 151.86ZM471.017 108.888H466.049L459.82 128.915H470.149L471.017 108.888ZM506.246 135.696C506.246 139.323 508.864 141.137 514.099 141.137C519.324 141.137 521.936 139.507 521.936 136.248C521.936 134.514 521.043 133.094 519.256 131.99C517.468 130.887 515.303 129.967 512.759 129.231C510.204 128.495 507.655 127.638 505.11 126.66C502.556 125.693 500.385 124.169 498.598 122.087C496.81 120.016 495.917 117.43 495.917 114.329C495.917 101.135 504.406 94.5378 521.385 94.5378C527.587 94.5378 532.281 95.7048 535.467 98.0386C538.642 100.383 540.229 103.632 540.229 107.784C540.229 109.309 540.035 110.765 539.646 112.152C539.246 113.551 538.836 114.539 538.416 115.117L537.785 116.063H523.829C524.985 114.854 525.563 113.33 525.563 111.49C525.563 108.073 523.329 106.365 518.861 106.365C513.237 106.365 510.425 108.152 510.425 111.727C510.425 113.514 511.318 114.933 513.106 115.984C514.893 117.036 517.064 117.861 519.618 118.46C522.163 119.07 524.722 119.822 527.298 120.715C529.874 121.609 532.055 123.091 533.842 125.162C535.63 127.244 536.523 129.94 536.523 133.252C536.523 139.928 534.526 144.879 530.531 148.107C526.536 151.345 520.386 152.964 512.081 152.964C503.775 152.964 498.098 151.492 495.049 148.548C492.789 146.341 491.659 143.292 491.659 139.402C491.659 137.93 491.817 136.327 492.132 134.592L492.369 133.331H506.561L506.404 134.277C506.298 134.803 506.246 135.276 506.246 135.696ZM565.697 115.038H567.51L580.836 95.0897H595.028L570.743 130.019L566.88 151.86H552.608L556.472 130.019L544.487 95.0897H559.547L565.697 115.038ZM650.773 118.744L648.645 131.044H627.671L624.044 151.86H609.773L619.786 95.0897H659.368L657.16 107.39H631.771L629.8 118.744H650.773ZM687.895 94.5378C700.563 94.5378 706.897 99.7155 706.897 110.071C706.897 111.805 706.713 113.671 706.345 115.669L703.586 131.438C702.324 138.745 699.591 144.159 695.385 147.681C691.18 151.203 685.267 152.964 677.645 152.964C670.023 152.964 664.714 151.203 661.717 147.681C659.667 145.263 658.642 141.925 658.642 137.667C658.642 135.775 658.853 133.699 659.273 131.438L662.033 115.669C664.503 101.582 673.124 94.5378 687.895 94.5378ZM679.774 140.742C682.402 140.742 684.504 140.059 686.081 138.692C687.658 137.326 688.762 134.803 689.393 131.123L692.074 115.984C692.232 114.933 692.31 113.987 692.31 113.146C692.31 108.888 690.155 106.759 685.845 106.759C680.431 106.864 677.198 109.939 676.147 115.984L673.466 131.123C673.256 132.437 673.15 133.804 673.15 135.223C673.15 138.903 675.358 140.742 679.774 140.742ZM740.25 94.5378C752.918 94.5378 759.252 99.7155 759.252 110.071C759.252 111.805 759.068 113.671 758.7 115.669L755.94 131.438C754.679 138.745 751.945 144.159 747.74 147.681C743.535 151.203 737.621 152.964 730 152.964C722.378 152.964 717.069 151.203 714.072 147.681C712.022 145.263 710.997 141.925 710.997 137.667C710.997 135.775 711.207 133.699 711.628 131.438L714.388 115.669C716.858 101.582 725.479 94.5378 740.25 94.5378ZM732.128 140.742C734.757 140.742 736.859 140.059 738.436 138.692C740.013 137.326 741.117 134.803 741.748 131.123L744.429 115.984C744.586 114.933 744.665 113.987 744.665 113.146C744.665 108.888 742.51 106.759 738.2 106.759C732.785 106.864 729.553 109.939 728.501 115.984L725.821 131.123C725.61 132.437 725.505 133.804 725.505 135.223C725.505 138.903 727.713 140.742 732.128 140.742ZM819.965 95.0897L817.757 107.39H798.36L790.554 151.86H776.283L784.089 107.39H764.614L766.821 95.0897H819.965ZM826.414 95.0897H849.28C855.283 95.0897 859.541 96.4039 862.053 99.0321C863.956 101.03 864.908 103.553 864.908 106.601C864.908 107.653 864.803 108.757 864.592 109.913L863.867 113.698C863.299 116.694 862.185 119.033 860.524 120.715C858.873 122.397 857.412 123.238 856.14 123.238L856.077 123.869C857.549 123.869 859.047 124.684 860.571 126.313C862.085 127.943 862.842 129.862 862.842 132.069C862.842 132.963 862.742 133.909 862.542 134.908L862.053 137.352C861.223 141.873 859.215 145.421 856.029 147.996C852.844 150.572 848.413 151.86 842.736 151.86H816.416L826.414 95.0897ZM842.184 128.679H834.693L832.817 139.56H840.307C840.412 139.56 840.512 139.56 840.607 139.56C843.035 139.56 844.959 138.992 846.379 137.857C847.787 136.732 848.492 135.355 848.492 133.725C848.492 130.361 846.389 128.679 842.184 128.679ZM844.313 107.39H838.399L836.365 119.138H842.184C847.241 119.138 849.769 116.931 849.769 112.515C849.769 110.991 849.306 109.755 848.381 108.809C847.467 107.863 846.11 107.39 844.313 107.39ZM910.702 151.86H895.721L896.195 139.481H883.027L879.163 151.86H864.103L884.367 95.0897H910.387L910.702 151.86ZM897.456 108.888H892.489L886.26 128.915H896.589L897.456 108.888ZM956.355 139.56L954.147 151.86H918.193L928.207 95.0897H942.399L934.593 139.56H956.355ZM998.617 139.56L996.41 151.86H960.455L970.469 95.0897H984.661L976.856 139.56H998.617Z" fill="white"/>
</g>
</g>
</g>
</g>
<g clip-path="url(#clip9_11_35)">
<g clip-path="url(#clip10_11_35)">
<path d="M447.094 18.1856C436.703 25.7354 429.952 34.1643 429.952 40.3724C429.952 46.5806 436.703 55.0081 447.094 62.5579V18.1856Z" fill="#959EA8"/>
<path d="M551.692 18.1856V62.5579C562.085 55.0067 568.836 46.5806 568.836 40.3724C568.836 34.1643 562.085 25.7354 551.692 18.1856Z" fill="#959EA8"/>
<path d="M499.394 0C484.722 0 469.641 4.95957 457.297 11.7385V69.0063C469.641 75.7852 484.722 80.7448 499.394 80.7448C514.066 80.7448 529.147 75.7852 541.493 69.0063V11.7385C529.147 4.95957 514.066 0 499.394 0ZM522.493 47.6833H518.198V42.5196H511.485V47.6833H507.19V42.5196H500.477V47.6833H496.182V42.5196H489.469V47.6833H485.172V42.5196H478.46V47.6833H474.164V33.0615H478.46V38.2239H485.172V33.0615H489.468V38.2239H496.18V33.0615H500.476V38.2239H507.188V33.0615H511.484V38.2239H518.196V33.0615H522.492V47.6833H522.493Z" fill="#959EA8"/>
</g>
</g>
</g>
</g>
</g>
</g>
</g>
<defs>
<clipPath id="clip0_11_35">
<rect width="1000" height="154" fill="white"/>
</clipPath>
<clipPath id="clip1_11_35">
<rect width="998.526" height="152.964" fill="white" transform="translate(0.130981)"/>
</clipPath>
<clipPath id="clip2_11_35">
<rect width="998.526" height="152.964" fill="white" transform="translate(0.130981)"/>
</clipPath>
<clipPath id="clip3_11_35">
<rect width="998.526" height="152.964" fill="white" transform="translate(0.130981)"/>
</clipPath>
<clipPath id="clip4_11_35">
<rect width="998.526" height="152.964" fill="white" transform="translate(0.130981)"/>
</clipPath>
<clipPath id="clip5_11_35">
<rect width="998.526" height="58.4261" fill="white" transform="translate(0.130981 94.5378)"/>
</clipPath>
<clipPath id="clip6_11_35">
<rect width="998.526" height="58.4261" fill="white" transform="translate(0.130981 94.5378)"/>
</clipPath>
<clipPath id="clip7_11_35">
<rect width="998.526" height="58.4261" fill="white" transform="translate(0.130981 94.5378)"/>
</clipPath>
<clipPath id="clip8_11_35">
<rect width="998.526" height="58.4261" fill="white" transform="translate(0.130981 94.5378)"/>
</clipPath>
<clipPath id="clip9_11_35">
<rect width="138.885" height="80.7448" fill="white" transform="translate(429.952)"/>
</clipPath>
<clipPath id="clip10_11_35">
<rect width="138.885" height="80.7448" fill="white" transform="translate(429.952)"/>
</clipPath>
</defs>
</svg>
