<svg width="48" height="32" viewBox="0 0 48 32" fill="none" xmlns="http://www.w3.org/2000/svg">
<path d="M23.7 14.7535C24.5667 13.6868 25.2083 12.5868 25.625 11.4535C26.0417 10.3202 26.25 9.00351 26.25 7.50351C26.25 6.00351 26.0417 4.68684 25.625 3.55351C25.2083 2.42018 24.5667 1.32018 23.7 0.253509C26.2333 -0.313158 28.4583 0.0701759 30.375 1.40351C32.2917 2.73684 33.25 4.77018 33.25 7.50351C33.25 10.2368 32.2917 12.2702 30.375 13.6035C28.4583 14.9368 26.2333 15.3202 23.7 14.7535ZM34.5 31.0535V26.3535C34.5 24.6535 34.0667 23.0702 33.2 21.6035C32.3333 20.1368 30.8333 18.9035 28.7 17.9035C34.4667 18.6368 38.4083 19.7035 40.525 21.1035C42.6417 22.5035 43.7 24.2535 43.7 26.3535V31.0535H34.5ZM40 16.6035V11.6035H35V8.60351H40V3.60351H43V8.60351H48V11.6035H43V16.6035H40ZM15.75 15.0035C13.55 15.0035 11.75 14.3035 10.35 12.9035C8.95 11.5035 8.25 9.70351 8.25 7.50351C8.25 5.30351 8.95 3.50351 10.35 2.10351C11.75 0.703509 13.55 0.00350866 15.75 0.00350866C17.95 0.00350866 19.75 0.703509 21.15 2.10351C22.55 3.50351 23.25 5.30351 23.25 7.50351C23.25 9.70351 22.55 11.5035 21.15 12.9035C19.75 14.3035 17.95 15.0035 15.75 15.0035V15.0035ZM0 31.0535V26.3535C0 25.1868 0.308333 24.1285 0.925 23.1785C1.54167 22.2285 2.36667 21.5202 3.4 21.0535C5.8 19.9868 7.94167 19.2202 9.825 18.7535C11.7083 18.2868 13.6833 18.0535 15.75 18.0535C17.8167 18.0535 19.7833 18.2868 21.65 18.7535C23.5167 19.2202 25.65 19.9868 28.05 21.0535C29.0833 21.5202 29.9167 22.2285 30.55 23.1785C31.1833 24.1285 31.5 25.1868 31.5 26.3535V31.0535H0ZM15.75 12.0035C17.05 12.0035 18.125 11.5785 18.975 10.7285C19.825 9.87851 20.25 8.80351 20.25 7.50351C20.25 6.20351 19.825 5.12851 18.975 4.27851C18.125 3.42851 17.05 3.00351 15.75 3.00351C14.45 3.00351 13.375 3.42851 12.525 4.27851C11.675 5.12851 11.25 6.20351 11.25 7.50351C11.25 8.80351 11.675 9.87851 12.525 10.7285C13.375 11.5785 14.45 12.0035 15.75 12.0035ZM3 28.0535H28.5V26.3535C28.5 25.8202 28.3667 25.3202 28.1 24.8535C27.8333 24.3868 27.4167 24.0202 26.85 23.7535C24.55 22.6868 22.6 21.9702 21 21.6035C19.4 21.2368 17.65 21.0535 15.75 21.0535C13.85 21.0535 12.1083 21.2368 10.525 21.6035C8.94167 21.9702 6.96667 22.6868 4.6 23.7535C4.1 23.9868 3.70833 24.3452 3.425 24.8285C3.14167 25.3118 3 25.8202 3 26.3535V28.0535Z" fill="#2C4732"/>
</svg>
